<svg xmlns="http://www.w3.org/2000/svg" width="26" height="26.118" viewBox="0 0 26 26.118">
  <path id="icons8-whatsapp_1_" data-name="icons8-whatsapp (1)" d="M26.213,7.8A12.948,12.948,0,0,0,5.837,23.411L4,30.119l6.864-1.8a12.955,12.955,0,0,0,6.187,1.578h0A12.948,12.948,0,0,0,26.213,7.8Zm-9.158,19.91h0a10.759,10.759,0,0,1-5.476-1.5l-.394-.233L7.106,27.042l1.088-3.969-.254-.406a10.759,10.759,0,1,1,9.115,5.04Zm5.9-8.057c-.322-.161-1.913-.944-2.209-1.049s-.512-.161-.728.161-.834,1.054-1.024,1.27-.377.241-.7.08a8.751,8.751,0,0,1-2.6-1.608,9.682,9.682,0,0,1-1.8-2.239c-.19-.326-.021-.5.14-.66.148-.144.326-.377.487-.567a2.248,2.248,0,0,0,.326-.537.6.6,0,0,0-.03-.567c-.08-.161-.728-1.756-1-2.4-.262-.63-.529-.542-.728-.554s-.4-.008-.618-.008a1.184,1.184,0,0,0-.863.406,3.619,3.619,0,0,0-1.13,2.7,6.31,6.31,0,0,0,1.32,3.347,14.447,14.447,0,0,0,5.527,4.879,17.943,17.943,0,0,0,1.841.681,4.5,4.5,0,0,0,2.04.131,3.331,3.331,0,0,0,2.184-1.54,2.718,2.718,0,0,0,.186-1.536C23.5,19.895,23.28,19.814,22.954,19.649Z" transform="translate(-4 -4)" fill="#c52228" fill-rule="evenodd"/>
</svg>
