<svg xmlns="http://www.w3.org/2000/svg" width="26" height="26" viewBox="0 0 26 26">
  <path id="icons8-facebook_1_" data-name="icons8-facebook (1)" d="M7.364,5A2.38,2.38,0,0,0,5,7.364V28.636A2.38,2.38,0,0,0,7.364,31H28.636A2.38,2.38,0,0,0,31,28.636V7.364A2.38,2.38,0,0,0,28.636,5Zm0,2.364H28.636V28.636H22.506V20.659h3.065l.443-3.545H22.506v-2.29c0-1.034.254-1.736,1.736-1.736h1.92V9.875c-.328-.042-1.463-.111-2.77-.111-2.724,0-4.58,1.639-4.58,4.69v2.659h-3.1v3.545h3.1v7.977H7.364Z" transform="translate(-5 -5)" fill="#c52228"/>
</svg>
