<svg xmlns="http://www.w3.org/2000/svg" width="26" height="26" viewBox="0 0 26 26">
  <path id="icons8-instagram_1_" data-name="icons8-instagram (1)" d="M12.645,5A7.675,7.675,0,0,0,5,12.645v10.71A7.675,7.675,0,0,0,12.645,31h10.71A7.675,7.675,0,0,0,31,23.355V12.645A7.675,7.675,0,0,0,23.355,5Zm0,2.364h10.71a5.274,5.274,0,0,1,5.281,5.281v10.71a5.274,5.274,0,0,1-5.281,5.281H12.645a5.274,5.274,0,0,1-5.281-5.281V12.645A5.274,5.274,0,0,1,12.645,7.364ZM24.98,9.949a1.071,1.071,0,1,0,1.071,1.071A1.066,1.066,0,0,0,24.98,9.949Zm-6.98.96A7.091,7.091,0,1,0,25.091,18,7.111,7.111,0,0,0,18,10.909Zm0,2.364A4.727,4.727,0,1,1,13.273,18,4.707,4.707,0,0,1,18,13.273Z" transform="translate(-5 -5)" fill="#c52228"/>
</svg>
